<?xml version="1.0" encoding="iso-8859-1"?>
<!-- Generator: Adobe Illustrator 25.2.1, SVG Export Plug-In . SVG Version: 6.00 Build 0)  -->
<svg version="1.1" id="&#x421;&#x43B;&#x43E;&#x439;_1"
	 xmlns="http://www.w3.org/2000/svg" xmlns:xlink="http://www.w3.org/1999/xlink" x="0px" y="0px" width="32px" height="32px"
	 viewBox="0 0 32 32" style="enable-background:new 0 0 32 32;" xml:space="preserve">
<path d="M18.912,4l-2.925,6.529L13.019,4H18.912 M22,2H9.913L16,15.391L22,2L22,2z"/>
<path d="M24.822,8L16,26.378L7.178,8H8.72l5.464,11.838L16,23.773l1.816-3.934L23.28,8H24.822 M28,6h-6l-6,13L10,6H4l12,25L28,6
	L28,6z"/>
<polygon points="16,19 10,6 4,6 16,31 "/>
<polygon points="16,2 22,2 16,15.5 "/>
</svg>